<?xml version="1.0" encoding="UTF-8"?>
<svg id="_1-Email" xmlns="http://www.w3.org/2000/svg" version="1.1" viewBox="0 0 72 72">
  <!-- Generator: Adobe Illustrator 29.6.1, SVG Export Plug-In . SVG Version: 2.1.1 Build 9)  -->
  <defs>
    <style>
      .st0 {
        fill: #ff7262;
      }
    </style>
  </defs>
  <path class="st0" d="M65.25,9H6.75c-3.73,0-6.75,3.02-6.75,6.75v40.5c0,3.73,3.02,6.75,6.75,6.75h58.5c3.73,0,6.75-3.02,6.75-6.75V15.75c0-3.73-3.02-6.75-6.75-6.75ZM63.63,13.5l-27.63,19.73L8.37,13.5h55.26ZM67.5,56.25c0,1.24-1.01,2.25-2.25,2.25H6.75c-1.24,0-2.25-1.01-2.25-2.25V16.27l30.19,21.55c.78.56,1.83.56,2.61,0l30.19-21.55v39.98Z"/>
</svg>