<?xml version="1.0" encoding="UTF-8"?>
<svg id="Layer_1" xmlns="http://www.w3.org/2000/svg" version="1.1" xmlns:x="ns_extend;" viewBox="0 0 77.3 71.89">
  <!-- Generator: Adobe Illustrator 29.6.1, SVG Export Plug-In . SVG Version: 2.1.1 Build 9)  -->
  <defs>
    <style>
      .st0 {
        fill: #ff7262;
      }
    </style>
  </defs>
  <path class="st0" d="M22.4,10.49c2.1,0,4.2.2,6.2.6,1.7.4,3.3,1.1,4.8,2.1,1.3,1,2.4,2.3,3.1,3.8.8,1.9,1.2,3.9,1.1,5.9.1,2.2-.5,4.4-1.6,6.3-1.2,1.8-2.9,3.2-4.8,4.1,2.7.7,5,2.4,6.5,4.6,1.5,2.4,2.2,5.2,2.2,8,0,2.3-.4,4.5-1.4,6.5-.9,1.8-2.2,3.3-3.7,4.6-1.6,1.2-3.5,2.1-5.4,2.6-2,.6-4.1.8-6.2.8H0V10.39h22.4v.1ZM21,30.69c1.6.1,3.3-.4,4.6-1.4,1.3-1.1,2-2.8,1.8-4.6,0-1-.2-2-.6-2.9-.4-.7-.9-1.3-1.6-1.7-.7-.4-1.5-.8-2.3-.9-.9-.2-1.8-.2-2.7-.2h-9.8v11.7h10.6ZM21.6,52.09c1,0,2-.1,2.9-.3s1.7-.6,2.5-1.1c.7-.5,1.3-1.2,1.7-2,.5-1,.7-2.1.6-3.2.2-2.1-.6-4.1-2.1-5.5-1.6-1.2-3.5-1.7-5.5-1.6h-11.3v13.8h11.2v-.1Z"/>
  <path class="st0" d="M54.7,51.89c1.7,1.5,3.9,2.3,6.1,2.2,1.8,0,3.5-.5,4.9-1.5,1.2-.8,2-1.9,2.5-3.2h8.3c-.9,3.7-3.1,7-6.1,9.3-2.9,2-6.4,2.9-10,2.8-2.5,0-5-.4-7.4-1.4-2.1-.9-4-2.2-5.5-3.9-1.5-1.8-2.7-3.8-3.5-6-.9-2.5-1.3-5.1-1.2-7.7,0-2.6.4-5.1,1.3-7.6,2.4-7,9-11.7,16.4-11.6,2.7-.1,5.3.6,7.7,1.8,2.1,1.2,4,2.8,5.4,4.8,1.4,2.1,2.5,4.4,3,6.9.6,2.6.8,5.4.7,8.1h-24.8c-.3,2.5.5,5,2.2,7ZM65.5,32.79c-1.4-1.4-3.3-2.1-5.3-2-1.3,0-2.6.2-3.7.8-.9.5-1.7,1.2-2.4,2-.6.8-1,1.6-1.3,2.6-.2.8-.4,1.6-.4,2.4h15.4c-.2-2.1-1-4.1-2.3-5.8h0Z"/>
  <rect class="st0" x="50.4" y="13.79" width="19.2" height="4.9"/>
</svg>