<?xml version="1.0" encoding="UTF-8"?>
<svg id="Capa_1" data-name="Capa 1" xmlns="http://www.w3.org/2000/svg" viewBox="0 0 282.16 276.33">
  <g>
    <path d="M0,118.37v-8.04h61.81v7.42c0,28.12,1.55,36.16,34.92,36.16s35.54-7.42,35.54-33.07V0h61.81v121.46c0,57.79-26.27,88.7-97.35,88.7S0,178.32,0,118.37Z"/>
    <path d="M206.75,203.86v-52.93c0-1.77,1.43-3.2,3.2-3.2h69c1.77,0,3.2,1.43,3.2,3.2v52.93c0,1.77-1.43,3.2-3.2,3.2h-69c-1.77,0-3.2-1.43-3.2-3.2Z"/>
  </g>
  <rect y="234.8" width="282.16" height="41.54" rx="2.83" ry="2.83"/>
</svg>