<?xml version="1.0" encoding="UTF-8"?>
<svg id="Capa_1" xmlns="http://www.w3.org/2000/svg" version="1.1" viewBox="0 0 100 100">
  <!-- Generator: Adobe Illustrator 29.6.1, SVG Export Plug-In . SVG Version: 2.1.1 Build 9)  -->
  <defs>
    <style>
      .st0 {
        fill: #fff;
      }
    </style>
  </defs>
  <path class="st0" d="M85.53,75c0-2.04-.5-4.05-1.46-5.85,7.47-9.19,11.55-20.68,11.53-32.53h-6c.01,10.14-3.37,20-9.6,28-2.07-1.39-4.51-2.13-7-2.12-.62,0-1.24.05-1.85.13l-12-26.88c5.8-7.47,4.44-18.24-3.03-24.04-2.2-1.71-4.78-2.85-7.52-3.33V0h-6v8.38c-9.32,1.63-15.56,10.5-13.93,19.82.48,2.75,1.62,5.33,3.33,7.54L4.4,97.55l5.48,2.45,8.3-18.58h0c14.16,8.13,31.33,9.09,46.3,2.58,2.31,2.2,5.38,3.43,8.57,3.43.86,0,1.71-.09,2.55-.26l5.72,12.83,5.48-2.45-5.8-13c2.85-2.35,4.51-5.85,4.53-9.55ZM45.6,14.1c6.17,0,11.17,5,11.17,11.17s-5,11.17-11.17,11.17-11.17-5-11.17-11.17h0c0-6.17,5-11.16,11.17-11.17ZM43.93,82.29c-8.2.02-16.25-2.18-23.29-6.38h0l16.07-36c5.46,3.33,12.32,3.33,17.78,0l11.16,25c-3.18,2.34-5.07,6.05-5.08,10,0,1.34.21,2.66.64,3.93-5.48,2.26-11.35,3.44-17.28,3.45ZM73.05,81.45h0c-.87,0-1.74-.18-2.54-.53-1.97-.85-3.39-2.61-3.8-4.71-.67-3.53,1.64-6.93,5.16-7.6.39-.08.79-.11,1.2-.12.26,0,.53.02.79.05.73.09,1.43.3,2.09.63,1.93.95,3.25,2.8,3.54,4.93.04.29.06.58.06.87,0,1.33-.4,2.62-1.17,3.7-1.21,1.75-3.2,2.79-5.33,2.78h0Z"/>
</svg>