<?xml version="1.0" encoding="UTF-8"?>
<svg id="Capa_1" data-name="Capa 1" xmlns="http://www.w3.org/2000/svg" viewBox="0 0 498.19 276.33">
  <defs>
    <style>
      .cls-1 {
        fill: #fff;
      }
    </style>
  </defs>
  <g>
    <path class="cls-1" d="M0,118.37v-8.04h61.81v7.42c0,28.12,1.55,36.16,34.92,36.16s35.54-7.42,35.54-33.07V0h61.81v121.46c0,57.79-26.27,88.7-97.35,88.7S0,178.32,0,118.37Z"/>
    <path class="cls-1" d="M206.75,207.06V0h131.66c44.81,0,67.06,17.62,67.06,50.07,0,26.58-13.91,45.43-51.61,46.98v3.09c41.41,1.54,61.19,20.71,61.19,49.45,0,34.92-20.09,57.48-69.54,57.48h-138.76ZM264.55,78.5h67.68c11.74,0,15.14-3.4,15.14-12.98s-4.64-13.29-16.69-13.29h-66.14v26.27ZM264.55,154.83h73.55c13.91,0,18.23-2.78,18.23-14.53s-4.02-14.22-18.23-14.22h-73.55v28.74Z"/>
    <path class="cls-1" d="M422.78,203.86v-52.93c0-1.77,1.43-3.2,3.2-3.2h69c1.77,0,3.2,1.43,3.2,3.2v52.93c0,1.77-1.43,3.2-3.2,3.2h-69c-1.77,0-3.2-1.43-3.2-3.2Z"/>
  </g>
  <rect class="cls-1" y="234.8" width="498.19" height="41.54" rx="2.83" ry="2.83"/>
  <text/>
</svg>